<mxfile host="app.diagrams.net" agent="Mozilla/5.0 (Windows NT 10.0; Win64; x64) AppleWebKit/537.36 (KHTML, like Gecko) Chrome/129.0.0.0 Safari/537.36" version="24.7.14">
  <diagram name="Page-1" id="r0GeugsKwieeJoHtUVfg">
    <mxGraphModel dx="940" dy="447" grid="1" gridSize="10" guides="1" tooltips="1" connect="1" arrows="1" fold="1" page="1" pageScale="1" pageWidth="850" pageHeight="1100" math="0" shadow="0">
      <root>
        <mxCell id="0" />
        <mxCell id="1" parent="0" />
        <mxCell id="H55He2t9uDGsArWsT2Ku-1" value="" style="swimlane;childLayout=stackLayout;resizeParent=1;resizeParentMax=0;horizontal=1;startSize=20;horizontalStack=0;html=1;" vertex="1" parent="1">
          <mxGeometry x="170" y="70" width="480" height="384" as="geometry" />
        </mxCell>
        <mxCell id="H55He2t9uDGsArWsT2Ku-2" value="Application layer" style="swimlane;startSize=20;horizontal=0;html=1;" vertex="1" parent="H55He2t9uDGsArWsT2Ku-1">
          <mxGeometry y="20" width="480" height="124" as="geometry" />
        </mxCell>
        <mxCell id="H55He2t9uDGsArWsT2Ku-7" value="" style="shape=image;html=1;verticalAlign=top;verticalLabelPosition=bottom;labelBackgroundColor=#ffffff;imageAspect=0;aspect=fixed;image=https://cdn1.iconfinder.com/data/icons/building-vol-3-3/512/12-128.png" vertex="1" parent="H55He2t9uDGsArWsT2Ku-2">
          <mxGeometry x="206" y="28" width="68" height="68" as="geometry" />
        </mxCell>
        <mxCell id="H55He2t9uDGsArWsT2Ku-8" value="" style="shape=image;html=1;verticalAlign=top;verticalLabelPosition=bottom;labelBackgroundColor=#ffffff;imageAspect=0;aspect=fixed;image=https://cdn3.iconfinder.com/data/icons/building-89/64/Bank-128.png" vertex="1" parent="H55He2t9uDGsArWsT2Ku-2">
          <mxGeometry x="350" y="28" width="68" height="68" as="geometry" />
        </mxCell>
        <mxCell id="H55He2t9uDGsArWsT2Ku-9" value="" style="sketch=0;pointerEvents=1;shadow=0;dashed=0;html=1;strokeColor=none;fillColor=#505050;labelPosition=center;verticalLabelPosition=bottom;verticalAlign=top;outlineConnect=0;align=center;shape=mxgraph.office.concepts.home;" vertex="1" parent="H55He2t9uDGsArWsT2Ku-2">
          <mxGeometry x="59" y="26" width="68" height="68" as="geometry" />
        </mxCell>
        <mxCell id="H55He2t9uDGsArWsT2Ku-21" value="SmartH&lt;span style=&quot;background-color: initial;&quot;&gt;ome&lt;/span&gt;" style="text;html=1;align=center;verticalAlign=middle;resizable=0;points=[];autosize=1;strokeColor=none;fillColor=none;" vertex="1" parent="H55He2t9uDGsArWsT2Ku-2">
          <mxGeometry x="48" y="88" width="90" height="30" as="geometry" />
        </mxCell>
        <mxCell id="H55He2t9uDGsArWsT2Ku-22" value="SmartCity" style="text;html=1;align=center;verticalAlign=middle;resizable=0;points=[];autosize=1;strokeColor=none;fillColor=none;" vertex="1" parent="H55He2t9uDGsArWsT2Ku-2">
          <mxGeometry x="200" y="88" width="80" height="30" as="geometry" />
        </mxCell>
        <mxCell id="H55He2t9uDGsArWsT2Ku-24" value="SmartGovernment" style="text;html=1;align=center;verticalAlign=middle;resizable=0;points=[];autosize=1;strokeColor=none;fillColor=none;" vertex="1" parent="H55He2t9uDGsArWsT2Ku-2">
          <mxGeometry x="324" y="88" width="120" height="30" as="geometry" />
        </mxCell>
        <mxCell id="H55He2t9uDGsArWsT2Ku-3" value="Network layer" style="swimlane;startSize=20;horizontal=0;html=1;" vertex="1" parent="H55He2t9uDGsArWsT2Ku-1">
          <mxGeometry y="144" width="480" height="120" as="geometry" />
        </mxCell>
        <mxCell id="H55He2t9uDGsArWsT2Ku-10" value="" style="sketch=0;pointerEvents=1;shadow=0;dashed=0;html=1;strokeColor=none;fillColor=#434445;aspect=fixed;labelPosition=center;verticalLabelPosition=bottom;verticalAlign=top;align=center;outlineConnect=0;shape=mxgraph.vvd.wi_fi;" vertex="1" parent="H55He2t9uDGsArWsT2Ku-3">
          <mxGeometry x="50" y="35" width="50" height="50" as="geometry" />
        </mxCell>
        <mxCell id="H55He2t9uDGsArWsT2Ku-12" value="" style="image;points=[];aspect=fixed;html=1;align=center;shadow=0;dashed=0;image=img/lib/allied_telesis/wireless/Access_Point_Indoor.svg;" vertex="1" parent="H55He2t9uDGsArWsT2Ku-3">
          <mxGeometry x="290" y="34.999999999999986" width="33.52" height="50" as="geometry" />
        </mxCell>
        <mxCell id="H55He2t9uDGsArWsT2Ku-13" value="" style="image;html=1;image=img/lib/clip_art/networking/Wireless_Router_N_128x128.png" vertex="1" parent="H55He2t9uDGsArWsT2Ku-3">
          <mxGeometry x="170" y="35" width="50" height="50" as="geometry" />
        </mxCell>
        <mxCell id="H55He2t9uDGsArWsT2Ku-14" value="" style="sketch=0;pointerEvents=1;shadow=0;dashed=0;html=1;strokeColor=none;fillColor=#505050;labelPosition=center;verticalLabelPosition=bottom;verticalAlign=top;outlineConnect=0;align=center;shape=mxgraph.office.devices.bluetooth;" vertex="1" parent="H55He2t9uDGsArWsT2Ku-3">
          <mxGeometry x="390" y="35" width="50" height="50" as="geometry" />
        </mxCell>
        <mxCell id="H55He2t9uDGsArWsT2Ku-25" value="Wifi" style="text;html=1;align=center;verticalAlign=middle;resizable=0;points=[];autosize=1;strokeColor=none;fillColor=none;" vertex="1" parent="H55He2t9uDGsArWsT2Ku-3">
          <mxGeometry x="55" y="85" width="40" height="30" as="geometry" />
        </mxCell>
        <mxCell id="H55He2t9uDGsArWsT2Ku-26" value="Router" style="text;html=1;align=center;verticalAlign=middle;resizable=0;points=[];autosize=1;strokeColor=none;fillColor=none;" vertex="1" parent="H55He2t9uDGsArWsT2Ku-3">
          <mxGeometry x="165" y="85" width="60" height="30" as="geometry" />
        </mxCell>
        <mxCell id="H55He2t9uDGsArWsT2Ku-28" value="Access Point" style="text;html=1;align=center;verticalAlign=middle;resizable=0;points=[];autosize=1;strokeColor=none;fillColor=none;" vertex="1" parent="H55He2t9uDGsArWsT2Ku-3">
          <mxGeometry x="266" y="85" width="90" height="30" as="geometry" />
        </mxCell>
        <mxCell id="H55He2t9uDGsArWsT2Ku-29" value="Bluetooth" style="text;html=1;align=center;verticalAlign=middle;resizable=0;points=[];autosize=1;strokeColor=none;fillColor=none;" vertex="1" parent="H55He2t9uDGsArWsT2Ku-3">
          <mxGeometry x="380" y="85" width="70" height="30" as="geometry" />
        </mxCell>
        <mxCell id="H55He2t9uDGsArWsT2Ku-37" style="edgeStyle=orthogonalEdgeStyle;rounded=0;orthogonalLoop=1;jettySize=auto;html=1;entryX=1.014;entryY=0.611;entryDx=0;entryDy=0;entryPerimeter=0;" edge="1" parent="H55He2t9uDGsArWsT2Ku-3" source="H55He2t9uDGsArWsT2Ku-20">
          <mxGeometry relative="1" as="geometry">
            <mxPoint x="364.53" y="170.45" as="sourcePoint" />
            <mxPoint x="323.5192800000001" y="56.00000000000006" as="targetPoint" />
            <Array as="points">
              <mxPoint x="350" y="171" />
              <mxPoint x="350" y="56" />
            </Array>
          </mxGeometry>
        </mxCell>
        <mxCell id="H55He2t9uDGsArWsT2Ku-4" value="Perception layer" style="swimlane;startSize=20;horizontal=0;html=1;" vertex="1" parent="H55He2t9uDGsArWsT2Ku-1">
          <mxGeometry y="264" width="480" height="120" as="geometry" />
        </mxCell>
        <mxCell id="H55He2t9uDGsArWsT2Ku-15" value="" style="shape=mxgraph.signs.tech.computer;html=1;pointerEvents=1;fillColor=#000000;strokeColor=none;verticalLabelPosition=bottom;verticalAlign=top;align=center;" vertex="1" parent="H55He2t9uDGsArWsT2Ku-4">
          <mxGeometry x="67" y="30" width="60" height="60" as="geometry" />
        </mxCell>
        <mxCell id="H55He2t9uDGsArWsT2Ku-16" value="Sensor" style="sketch=0;outlineConnect=0;fontColor=#232F3E;gradientColor=none;strokeColor=#232F3E;fillColor=#ffffff;dashed=0;verticalLabelPosition=bottom;verticalAlign=top;align=center;html=1;fontSize=12;fontStyle=0;aspect=fixed;shape=mxgraph.aws4.resourceIcon;resIcon=mxgraph.aws4.sensor;" vertex="1" parent="H55He2t9uDGsArWsT2Ku-4">
          <mxGeometry x="211" y="26" width="60" height="60" as="geometry" />
        </mxCell>
        <mxCell id="H55He2t9uDGsArWsT2Ku-20" value="" style="sketch=0;pointerEvents=1;shadow=0;dashed=0;html=1;strokeColor=none;fillColor=#434445;aspect=fixed;labelPosition=center;verticalLabelPosition=bottom;verticalAlign=top;align=center;outlineConnect=0;shape=mxgraph.vvd.cpu;" vertex="1" parent="H55He2t9uDGsArWsT2Ku-4">
          <mxGeometry x="360" y="30" width="60" height="60" as="geometry" />
        </mxCell>
        <mxCell id="H55He2t9uDGsArWsT2Ku-30" value="RFID" style="text;html=1;align=center;verticalAlign=middle;resizable=0;points=[];autosize=1;strokeColor=none;fillColor=none;" vertex="1" parent="H55He2t9uDGsArWsT2Ku-4">
          <mxGeometry x="365" y="45" width="50" height="30" as="geometry" />
        </mxCell>
        <mxCell id="H55He2t9uDGsArWsT2Ku-31" style="edgeStyle=orthogonalEdgeStyle;rounded=0;orthogonalLoop=1;jettySize=auto;html=1;exitX=0;exitY=0.5;exitDx=0;exitDy=0;" edge="1" parent="H55He2t9uDGsArWsT2Ku-1" source="H55He2t9uDGsArWsT2Ku-13" target="H55He2t9uDGsArWsT2Ku-9">
          <mxGeometry relative="1" as="geometry">
            <Array as="points">
              <mxPoint x="150" y="204" />
              <mxPoint x="150" y="80" />
            </Array>
          </mxGeometry>
        </mxCell>
        <mxCell id="H55He2t9uDGsArWsT2Ku-34" style="edgeStyle=orthogonalEdgeStyle;rounded=0;orthogonalLoop=1;jettySize=auto;html=1;exitX=0.995;exitY=0.5;exitDx=0;exitDy=0;exitPerimeter=0;entryX=0;entryY=0.75;entryDx=0;entryDy=0;" edge="1" parent="H55He2t9uDGsArWsT2Ku-1" source="H55He2t9uDGsArWsT2Ku-15" target="H55He2t9uDGsArWsT2Ku-13">
          <mxGeometry relative="1" as="geometry" />
        </mxCell>
        <mxCell id="H55He2t9uDGsArWsT2Ku-35" style="edgeStyle=orthogonalEdgeStyle;rounded=0;orthogonalLoop=1;jettySize=auto;html=1;entryX=0.003;entryY=0.433;entryDx=0;entryDy=0;entryPerimeter=0;" edge="1" parent="H55He2t9uDGsArWsT2Ku-1" source="H55He2t9uDGsArWsT2Ku-16" target="H55He2t9uDGsArWsT2Ku-12">
          <mxGeometry relative="1" as="geometry">
            <Array as="points">
              <mxPoint x="241" y="200" />
              <mxPoint x="270" y="200" />
            </Array>
          </mxGeometry>
        </mxCell>
        <mxCell id="H55He2t9uDGsArWsT2Ku-38" style="edgeStyle=orthogonalEdgeStyle;rounded=0;orthogonalLoop=1;jettySize=auto;html=1;entryX=0;entryY=0.5;entryDx=0;entryDy=0;" edge="1" parent="H55He2t9uDGsArWsT2Ku-1" source="H55He2t9uDGsArWsT2Ku-12" target="H55He2t9uDGsArWsT2Ku-8">
          <mxGeometry relative="1" as="geometry">
            <Array as="points">
              <mxPoint x="310" y="82" />
            </Array>
          </mxGeometry>
        </mxCell>
        <mxCell id="H55He2t9uDGsArWsT2Ku-39" style="edgeStyle=orthogonalEdgeStyle;rounded=0;orthogonalLoop=1;jettySize=auto;html=1;entryX=1;entryY=0.5;entryDx=0;entryDy=0;" edge="1" parent="H55He2t9uDGsArWsT2Ku-1" source="H55He2t9uDGsArWsT2Ku-12" target="H55He2t9uDGsArWsT2Ku-7">
          <mxGeometry relative="1" as="geometry">
            <Array as="points">
              <mxPoint x="294" y="82" />
            </Array>
          </mxGeometry>
        </mxCell>
      </root>
    </mxGraphModel>
  </diagram>
</mxfile>
